<?xml version="1.0" encoding="UTF-8" standalone="no"?>
<svg
   width="16"
   height="16"
   version="1.1"
   viewBox="0 0 16 16"
   id="svg2"
   sodipodi:docname="coins.svg"
   inkscape:version="1.4 (e7c3feb100, 2024-10-09)"
   xmlns:inkscape="http://www.inkscape.org/namespaces/inkscape"
   xmlns:sodipodi="http://sodipodi.sourceforge.net/DTD/sodipodi-0.dtd"
   xmlns="http://www.w3.org/2000/svg"
   xmlns:svg="http://www.w3.org/2000/svg">
  <defs
     id="defs2" />
  <sodipodi:namedview
     id="namedview2"
     pagecolor="#ffffff"
     bordercolor="#000000"
     borderopacity="0.25"
     inkscape:showpageshadow="2"
     inkscape:pageopacity="0.0"
     inkscape:pagecheckerboard="0"
     inkscape:deskcolor="#d1d1d1"
     inkscape:zoom="32"
     inkscape:cx="6.34375"
     inkscape:cy="7.78125"
     inkscape:window-width="2560"
     inkscape:window-height="1048"
     inkscape:window-x="0"
     inkscape:window-y="0"
     inkscape:window-maximized="1"
     inkscape:current-layer="svg2" />
  <path
     style="fill:none;stroke:#fc7f7f;stroke-width:1;stroke-linecap:round;stroke-linejoin:round;stroke-miterlimit:6;stroke-dasharray:none;stroke-opacity:1"
     id="path1"
     sodipodi:type="arc"
     sodipodi:cx="8"
     sodipodi:cy="12.598426"
     sodipodi:rx="4"
     sodipodi:ry="2"
     sodipodi:start="0"
     sodipodi:end="3.1415927"
     sodipodi:arc-type="arc"
     d="m 12,12.598426 a 4,2 0 0 1 -2.0000001,1.732051 4,2 0 0 1 -4,0 A 4,2 0 0 1 4,12.598426"
     sodipodi:open="true" />
  <ellipse
     style="fill:none;stroke:#fc7f7f;stroke-width:1;stroke-linecap:round;stroke-linejoin:round;stroke-miterlimit:6;stroke-dasharray:none;stroke-opacity:1"
     id="ellipse1"
     cx="8"
     cy="3.3984258"
     rx="4"
     ry="2" />
  <path
     style="fill:none;stroke:#fc7f7f;stroke-width:1;stroke-linecap:round;stroke-linejoin:round;stroke-miterlimit:6;stroke-dasharray:none;stroke-opacity:1"
     d="M 3.9999998,12.598426 V 3.3984257"
     id="path2" />
  <path
     style="fill:none;stroke:#fc7f7f;stroke-width:1;stroke-linecap:round;stroke-linejoin:round;stroke-miterlimit:6;stroke-dasharray:none;stroke-opacity:1"
     d="M 12,3.3984257 V 12.598426"
     id="path3" />
  <path
     style="fill:none;stroke:#fc7f7f;stroke-width:1;stroke-linecap:round;stroke-linejoin:round;stroke-miterlimit:6;stroke-dasharray:none;stroke-opacity:1"
     id="path4"
     sodipodi:type="arc"
     sodipodi:cx="8"
     sodipodi:cy="5.2359071"
     sodipodi:rx="4"
     sodipodi:ry="2"
     sodipodi:start="0"
     sodipodi:end="3.1415927"
     sodipodi:arc-type="arc"
     d="m 12,5.2359071 a 4,2 0 0 1 -2.0000001,1.7320508 4,2 0 0 1 -4,0 A 4,2 0 0 1 4,5.2359071"
     sodipodi:open="true" />
  <path
     style="fill:none;stroke:#fc7f7f;stroke-width:1;stroke-linecap:round;stroke-linejoin:round;stroke-miterlimit:6;stroke-dasharray:none;stroke-opacity:1"
     id="path7"
     sodipodi:type="arc"
     sodipodi:cx="8"
     sodipodi:cy="7.0765367"
     sodipodi:rx="4"
     sodipodi:ry="2"
     sodipodi:start="0"
     sodipodi:end="3.1415927"
     sodipodi:arc-type="arc"
     d="m 12,7.0765367 a 4,2 0 0 1 -2.0000001,1.7320508 4,2 0 0 1 -4,-10e-8 A 4,2 0 0 1 4,7.0765367"
     sodipodi:open="true" />
  <path
     style="fill:none;stroke:#fc7f7f;stroke-width:1;stroke-linecap:round;stroke-linejoin:round;stroke-miterlimit:6;stroke-dasharray:none;stroke-opacity:1"
     id="path8"
     sodipodi:type="arc"
     sodipodi:cx="8"
     sodipodi:cy="8.9171667"
     sodipodi:rx="4"
     sodipodi:ry="2"
     sodipodi:start="0"
     sodipodi:end="3.1415927"
     sodipodi:arc-type="arc"
     d="m 12,8.9171667 a 4,2 0 0 1 -2.0000001,1.7320513 4,2 0 0 1 -4,-10e-7 A 4,2 0 0 1 4,8.9171667"
     sodipodi:open="true" />
  <path
     style="fill:none;stroke:#fc7f7f;stroke-width:1;stroke-linecap:round;stroke-linejoin:round;stroke-miterlimit:6;stroke-dasharray:none;stroke-opacity:1"
     id="path9"
     sodipodi:type="arc"
     sodipodi:cx="8"
     sodipodi:cy="10.757796"
     sodipodi:rx="4"
     sodipodi:ry="2"
     sodipodi:start="0"
     sodipodi:end="3.1415927"
     sodipodi:arc-type="arc"
     d="m 12,10.757796 a 4,2 0 0 1 -2.0000001,1.732051 4,2 0 0 1 -4,0 A 4,2 0 0 1 4,10.757796"
     sodipodi:open="true" />
  <path
     style="fill:none;stroke:#fc7f7f;stroke-width:0.5;stroke-linecap:round;stroke-linejoin:round;stroke-miterlimit:6;stroke-dasharray:none;stroke-dashoffset:0;stroke-opacity:1"
     d="M 6.3379778,4.9869913 6.25,14.152358"
     id="path10" />
  <path
     style="fill:none;stroke:#fc7f7f;stroke-width:0.5;stroke-linecap:round;stroke-linejoin:round;stroke-miterlimit:6;stroke-dasharray:none;stroke-dashoffset:0;stroke-opacity:1"
     d="M 5.3379778,4.9869913 5.25,14.152358"
     id="path11" />
</svg>
