<?xml version="1.0" encoding="UTF-8" standalone="no"?>
<svg
   width="16"
   height="16"
   version="1.1"
   viewBox="0 0 16 16"
   id="svg1"
   sodipodi:docname="swords-crossed.svg"
   inkscape:version="1.4 (e7c3feb100, 2024-10-09)"
   xmlns:inkscape="http://www.inkscape.org/namespaces/inkscape"
   xmlns:sodipodi="http://sodipodi.sourceforge.net/DTD/sodipodi-0.dtd"
   xmlns="http://www.w3.org/2000/svg"
   xmlns:svg="http://www.w3.org/2000/svg">
  <defs
     id="defs1" />
  <sodipodi:namedview
     id="namedview1"
     pagecolor="#ffffff"
     bordercolor="#000000"
     borderopacity="0.25"
     inkscape:showpageshadow="2"
     inkscape:pageopacity="0.0"
     inkscape:pagecheckerboard="0"
     inkscape:deskcolor="#d1d1d1"
     inkscape:zoom="1"
     inkscape:cx="-356"
     inkscape:cy="-79"
     inkscape:window-width="2560"
     inkscape:window-height="1048"
     inkscape:window-x="0"
     inkscape:window-y="0"
     inkscape:window-maximized="1"
     inkscape:current-layer="svg1" />
  <path
     id="rect13"
     style="fill:none;stroke:#fc7f7f;stroke-width:1;stroke-linecap:round;stroke-linejoin:round;stroke-dasharray:none"
     d="M 12.536067,3.4639289 C 12.37486,7.2658772 9.4284567,8.9984808 6.5567916,11.151569 L 4.8484265,9.4432039 9.0060887,4.1389817 Z"
     sodipodi:nodetypes="ccccc" />
  <rect
     style="fill:#fc7f7f;fill-opacity:1;stroke:#fc7f7f;stroke-width:1;stroke-linecap:round;stroke-linejoin:round;stroke-dasharray:none;stroke-opacity:1"
     id="rect14"
     width="1.5"
     height="2.415992"
     x="10.563705"
     y="3.2489982"
     transform="rotate(45)" />
  <rect
     style="fill:none;fill-opacity:1;stroke:#fc7f7f;stroke-width:1;stroke-linecap:round;stroke-linejoin:round;stroke-dasharray:none;stroke-opacity:1"
     id="rect15"
     width="4"
     height="1"
     x="9.3137054"
     y="3.2489982"
     transform="rotate(45)" />
  <path
     id="path15"
     style="fill:none;stroke:#fc7f7f;stroke-width:1;stroke-linecap:round;stroke-linejoin:round;stroke-dasharray:none"
     d="M 3.4648438 3.4648438 C 3.5532863 5.5506964 4.4806196 7.0123798 5.7734375 8.2636719 L 8 5.421875 L 6.9941406 4.1386719 L 3.4648438 3.4648438 z M 10.226562 8.2636719 C 9.5598232 8.9089952 8.7966796 9.4987854 8 10.087891 C 8.474254 10.438578 8.9596804 10.789696 9.4433594 11.152344 L 11.152344 9.4433594 L 10.226562 8.2636719 z " />
  <rect
     style="fill:#fc7f7f;fill-opacity:1;stroke:#fc7f7f;stroke-width:1;stroke-linecap:round;stroke-linejoin:round;stroke-dasharray:none;stroke-opacity:1"
     id="rect16"
     width="1.5"
     height="2.415992"
     x="-0.7500031"
     y="14.562707"
     transform="matrix(-0.70710678,0.70710678,0.70710678,0.70710678,0,0)" />
  <rect
     style="fill:none;fill-opacity:1;stroke:#fc7f7f;stroke-width:1;stroke-linecap:round;stroke-linejoin:round;stroke-dasharray:none;stroke-opacity:1"
     id="rect17"
     width="4"
     height="1"
     x="-2"
     y="14.563361"
     transform="matrix(-0.70710678,0.70710678,0.70710678,0.70710678,0,0)" />
</svg>
