<svg xmlns="http://www.w3.org/2000/svg" width="16" height="16"><path d="M6.887 7.362A2.48 2.48 0 0 0 4.497 8l-.875.876a2.486 2.486 0 0 0 0 3.502c.962.963 2.54.963 3.502 0L8 11.503a2.48 2.48 0 0 0 .638-2.39l-1.512 1.512-.002.002-.875.876a1.23 1.23 0 0 1-1.752 0 1.23 1.23 0 0 1 0-1.752l.876-.875.002-.002z" style="fill:#ffca5f;stroke-width:1.23841;stroke-linecap:round;stroke-linejoin:round"/><path d="m9.75 6.25-3.5 3.5" style="fill:none;fill-opacity:1;stroke:#ffca5f;stroke-width:1.23841;stroke-linecap:round;stroke-linejoin:round;stroke-dasharray:none;stroke-opacity:1"/><path d="M7.362 6.887A2.48 2.48 0 0 1 8 4.497l.876-.875a2.486 2.486 0 0 1 3.502 0c.963.962.963 2.54 0 3.502L11.503 8a2.48 2.48 0 0 1-2.39.638l1.512-1.512.002-.002.876-.875a1.23 1.23 0 0 0 0-1.752 1.23 1.23 0 0 0-1.752 0l-.875.876-.002.002z" style="fill:#ffca5f;stroke-width:1.23841;stroke-linecap:round;stroke-linejoin:round"/></svg>