<svg xmlns="http://www.w3.org/2000/svg" width="16" height="16"><circle cx="8" cy="8" r="5" style="fill:none;fill-opacity:1;stroke:#fc7f7f;stroke-width:1;stroke-linecap:round;stroke-linejoin:round;stroke-dasharray:none;stroke-opacity:1"/><path d="M3 8h10M9.027 3.107A5 5 0 0 0 5 8a5 5 0 0 0 4 4.887A5 5 0 0 0 13 8a5 5 0 0 0-3.973-4.893" style="fill:none;fill-opacity:1;stroke:#fc7f7f;stroke-width:1;stroke-linecap:round;stroke-linejoin:round;stroke-dasharray:none;stroke-opacity:1"/><path d="M7.027 3.107A5 5 0 0 0 3 8a5 5 0 0 0 4 4.887A5 5 0 0 0 11 8a5 5 0 0 0-3.973-4.893M8 3v10" style="fill:none;fill-opacity:1;stroke:#fc7f7f;stroke-width:1;stroke-linecap:round;stroke-linejoin:round;stroke-dasharray:none;stroke-opacity:1"/></svg>