<svg xmlns="http://www.w3.org/2000/svg" width="16" height="16"><path d="M12.536 3.464c-.161 3.802-3.108 5.534-5.98 7.688L4.849 9.443 9.006 4.14Z" style="fill:none;stroke:#8da5f3;stroke-width:1;stroke-linecap:round;stroke-linejoin:round;stroke-dasharray:none"/><path d="M10.564 3.249h1.5v2.416h-1.5z" style="fill:#8da5f3;fill-opacity:1;stroke:#8da5f3;stroke-width:1;stroke-linecap:round;stroke-linejoin:round;stroke-dasharray:none;stroke-opacity:1" transform="rotate(45)"/><path d="M9.314 3.249h4v1h-4z" style="fill:none;fill-opacity:1;stroke:#8da5f3;stroke-width:1;stroke-linecap:round;stroke-linejoin:round;stroke-dasharray:none;stroke-opacity:1" transform="rotate(45)"/><path d="M3.465 3.465C3.553 5.55 4.48 7.012 5.773 8.264L8 5.422 6.994 4.139zm6.762 4.799C9.56 8.909 8.797 9.499 8 10.088c.474.35.96.702 1.443 1.064l1.71-1.709z" style="fill:none;stroke:#8da5f3;stroke-width:1;stroke-linecap:round;stroke-linejoin:round;stroke-dasharray:none"/><path d="M-.75 14.563h1.5v2.416h-1.5z" style="fill:#8da5f3;fill-opacity:1;stroke:#8da5f3;stroke-width:1;stroke-linecap:round;stroke-linejoin:round;stroke-dasharray:none;stroke-opacity:1" transform="scale(-1 1)rotate(45)"/><path d="M-2 14.563h4v1h-4z" style="fill:none;fill-opacity:1;stroke:#8da5f3;stroke-width:1;stroke-linecap:round;stroke-linejoin:round;stroke-dasharray:none;stroke-opacity:1" transform="scale(-1 1)rotate(45)"/></svg>