<?xml version="1.0" encoding="UTF-8" standalone="no"?>
<!-- Created with Inkscape (http://www.inkscape.org/) -->

<svg
   width="16"
   height="16"
   viewBox="0 0 16 16"
   version="1.1"
   id="svg1"
   sodipodi:docname="fist.svg"
   inkscape:version="1.4.2 (ebf0e940d0, 2025-05-08)"
   xml:space="preserve"
   xmlns:inkscape="http://www.inkscape.org/namespaces/inkscape"
   xmlns:sodipodi="http://sodipodi.sourceforge.net/DTD/sodipodi-0.dtd"
   xmlns="http://www.w3.org/2000/svg"
   xmlns:svg="http://www.w3.org/2000/svg"><sodipodi:namedview
     id="namedview1"
     pagecolor="#ffffff"
     bordercolor="#000000"
     borderopacity="0.25"
     inkscape:showpageshadow="2"
     inkscape:pageopacity="0.0"
     inkscape:pagecheckerboard="0"
     inkscape:deskcolor="#d1d1d1"
     inkscape:zoom="45.254834"
     inkscape:cx="6.8169513"
     inkscape:cy="9.2476309"
     inkscape:window-width="2560"
     inkscape:window-height="1043"
     inkscape:window-x="0"
     inkscape:window-y="0"
     inkscape:window-maximized="1"
     inkscape:current-layer="svg1"
     showgrid="false"><inkscape:grid
       id="grid1"
       units="px"
       originx="0"
       originy="0"
       spacingx="1"
       spacingy="1"
       empcolor="#0099e5"
       empopacity="0.30196078"
       color="#0099e5"
       opacity="0.14901961"
       empspacing="5"
       enabled="true"
       visible="false" /></sodipodi:namedview><defs
     id="defs1"><inkscape:path-effect
       effect="powermask"
       id="path-effect9"
       is_visible="true"
       lpeversion="1"
       uri="#mask-powermask-path-effect9"
       invert="false"
       hide_mask="false"
       background="true"
       background_color="#ffffffff" /><mask
       maskUnits="userSpaceOnUse"
       id="mask-powermask-path-effect3"><path
         id="mask-powermask-path-effect3_box"
         style="fill:#ffffff;fill-opacity:1"
         d="M -1,-1 H 17 V 17 H -1 Z" /><path
         style="fill:none;fill-opacity:1;stroke:#000000;stroke-width:2;stroke-linecap:round;stroke-linejoin:round;stroke-miterlimit:6;stroke-dasharray:none;stroke-opacity:1"
         d="M 3.7573597,9.0606809 5.87868,11.182001 12.24264,4.8180402"
         id="path3" /></mask><filter
       id="mask-powermask-path-effect3_inverse"
       style="color-interpolation-filters:sRGB"
       height="100"
       width="100"
       x="-50"
       y="-50"><feColorMatrix
         id="mask-powermask-path-effect3_primitive1"
         values="1"
         type="saturate"
         result="fbSourceGraphic" /><feColorMatrix
         id="mask-powermask-path-effect3_primitive2"
         values="-1 0 0 0 1 0 -1 0 0 1 0 0 -1 0 1 0 0 0 1 0 "
         in="fbSourceGraphic" /></filter><mask
       maskUnits="userSpaceOnUse"
       id="mask-powermask-path-effect9"><path
         id="mask-powermask-path-effect9_box"
         style="fill:#ffffff;fill-opacity:1"
         d="m 1.5,6 h 13 v 10 h -13 z" /><path
         id="path9"
         style="fill:#000000;fill-opacity:1;stroke:none;stroke-width:1;stroke-linecap:round;stroke-linejoin:round;stroke-miterlimit:6;stroke-dasharray:none;stroke-opacity:1"
         d="m 7.5,3 c -0.554,0 -1,0.446 -1,1 v 3 c 0,0.554 0.446,1 1,1 H 8 L 8.609375,7.2851562 C 8.5405839,7.4209895 8.5,7.5750511 8.5,7.7382812 v 1 c 0,0.5540001 0.446,1 1,1 h 3 c 0.554,0 1,-0.4459999 1,-1 v -1 c 0,-0.554 -0.446,-1 -1,-1 h -3 c -0.2200051,0 -0.4231181,0.069948 -0.5878906,0.1894532 L 9.5,6.2382812 h 3 V 4 c 0,-0.554 -0.446,-1 -1,-1 h -1 C 9.946,3 9.5,3.446 9.5,4 9.5,3.446 9.054,3 8.5,3 Z M 4,4 C 3.446,4 3,4.446 3,5 V 8 C 3,8.554 3.446,9 4,9 H 5 C 5.554,9 6,8.554 6,8 V 5 C 6,4.446 5.554,4 5,4 Z" /></mask><filter
       id="mask-powermask-path-effect9_inverse"
       inkscape:label="filtermask-powermask-path-effect9"
       style="color-interpolation-filters:sRGB"
       height="100"
       width="100"
       x="-50"
       y="-50"><feColorMatrix
         id="mask-powermask-path-effect9_primitive1"
         values="1"
         type="saturate"
         result="fbSourceGraphic" /><feColorMatrix
         id="mask-powermask-path-effect9_primitive2"
         values="-1 0 0 0 1 0 -1 0 0 1 0 0 -1 0 1 0 0 0 1 0 "
         in="fbSourceGraphic" /></filter></defs><rect
     style="fill:none;stroke:#fc7f7f;stroke-width:1;stroke-linecap:round;stroke-linejoin:round;stroke-miterlimit:6;stroke-dasharray:none;stroke-opacity:1"
     id="rect1"
     width="3"
     height="5"
     x="3"
     y="4"
     rx="1"
     ry="1" /><path
     id="rect2"
     style="fill:none;stroke:#fc7f7f;stroke-width:1;stroke-linecap:round;stroke-linejoin:round;stroke-miterlimit:6;stroke-dasharray:none"
     d="M 8,8 H 7.5 C 6.946,8 6.5,7.554 6.5,7 V 4 c 0,-0.554 0.446,-1 1,-1 h 1 c 0.554,0 1,0.446 1,1 v 2.237437"
     sodipodi:nodetypes="ccsssssc" /><path
     id="rect3"
     style="fill:none;stroke:#fc7f7f;stroke-width:1;stroke-linecap:round;stroke-linejoin:round;stroke-miterlimit:6;stroke-dasharray:none"
     d="M 9.5,6.237437 V 4 c 0,-0.554 0.446,-1 1,-1 h 1 c 0.554,0 1,0.446 1,1 v 2.237437"
     sodipodi:nodetypes="cssssc" /><rect
     style="fill:none;stroke:#fc7f7f;stroke-width:1;stroke-linecap:round;stroke-linejoin:round;stroke-miterlimit:6;stroke-dasharray:none;stroke-opacity:1"
     id="rect4"
     width="3"
     height="5"
     x="6.7374372"
     y="-13.5"
     rx="1"
     ry="1"
     transform="rotate(90)" /><g
     id="g9"
     mask="url(#mask-powermask-path-effect9)"
     inkscape:path-effect="#path-effect9"><path
       id="rect6"
       style="fill:none;stroke:#fc7f7f;stroke-width:2;stroke-linecap:round;stroke-linejoin:round;stroke-miterlimit:6;stroke-dasharray:none;stroke-opacity:1"
       d="m 12.5,10 c 0,1.662 -1.338,3 -3,3 m -3,0 c -1.662,0 -3,-1.338 -3,-3 V 8"
       sodipodi:nodetypes="cccsc"
       inkscape:original-d="m 12.5,10 c 0,1.662 -1.338,3 -3,3 m -3,0 c -1.662,0 -3,-1.338 -3,-3 V 8" /><path
       style="fill:none;stroke:#fc7f7f;stroke-width:2;stroke-linecap:round;stroke-linejoin:round;stroke-miterlimit:6;stroke-dasharray:none;stroke-opacity:1"
       d="m 5,13 v 1"
       id="path6"
       sodipodi:nodetypes="cc"
       inkscape:original-d="m 5,13 v 1" /><path
       style="fill:none;stroke:#fc7f7f;stroke-width:2;stroke-linecap:round;stroke-linejoin:round;stroke-miterlimit:6;stroke-dasharray:none;stroke-opacity:1"
       d="m 11,13 v 1"
       id="path7"
       sodipodi:nodetypes="cc"
       inkscape:original-d="m 11,13 v 1" /></g></svg>
